<svg version="1.1" viewBox="0.0 0.0 1904.8818897637796 766.8661417322835" fill="none" stroke="none" stroke-linecap="square" stroke-miterlimit="10" xmlns:xlink="http://www.w3.org/1999/xlink" xmlns="http://www.w3.org/2000/svg"><clipPath id="p.0"><path d="m0 0l1904.8818 0l0 766.86615l-1904.8818 0l0 -766.86615z" clip-rule="nonzero"/></clipPath><g clip-path="url(#p.0)"><path fill="#000000" fill-opacity="0.0" d="m0 0l1904.8818 0l0 766.86615l-1904.8818 0z" fill-rule="evenodd"/><path fill="#000000" fill-opacity="0.0" d="m0 247.29062l1904.8818 0l0 272.28348l-1904.8818 0z" fill-rule="evenodd"/><path fill="#ffffff" d="m30.487549 352.5466l0 -71.765625l14.109375 0l29.375 47.921875l0 -47.921875l13.453125 0l0 71.765625l-14.53125 0l-28.9375 -46.796875l0 46.796875l-13.46875 0zm72.174255 -71.765625l14.484375 0l0 38.859375q0 9.265625 0.546875 12.0q0.921875 4.40625 4.421875 7.078125q3.5 2.671875 9.578125 2.671875q6.15625 0 9.296875 -2.515625q3.140625 -2.53125 3.765625 -6.203125q0.640625 -3.671875 0.640625 -12.1875l0 -39.703125l14.484375 0l0 37.6875q0 12.921875 -1.171875 18.265625q-1.171875 5.328125 -4.328125 9.0q-3.15625 3.671875 -8.453125 5.859375q-5.28125 2.171875 -13.796875 2.171875q-10.28125 0 -15.59375 -2.375q-5.3125 -2.375 -8.40625 -6.15625q-3.078125 -3.796875 -4.0625 -7.96875q-1.40625 -6.15625 -1.40625 -18.203125l0 -38.28125zm72.50238 71.765625l0 -71.765625l53.21875 0l0 12.140625l-38.734375 0l0 15.90625l36.03125 0l0 12.09375l-36.03125 0l0 19.53125l40.09375 0l0 12.09375l-54.578125 0zm63.204514 -23.359375l14.09375 -1.359375q1.28125 7.09375 5.1718903 10.421875q3.890625 3.328125 10.5 3.328125q7.0 0 10.546875 -2.953125q3.546875 -2.96875 3.546875 -6.9375q0 -2.546875 -1.5 -4.328125q-1.484375 -1.78125 -5.203125 -3.109375q-2.546875 -0.875 -11.609375 -3.140625q-11.64064 -2.875 -16.343765 -7.09375q-6.609375 -5.921875 -6.609375 -14.4375q0 -5.484375 3.109375 -10.25q3.109375 -4.78125 8.953125 -7.28125q5.8593903 -2.5 14.125015 -2.5q13.515625 0 20.34375 5.9375q6.828125 5.921875 7.171875 15.796875l-14.484375 0.640625q-0.9375 -5.53125 -4.0 -7.953125q-3.046875 -2.421875 -9.171875 -2.421875q-6.3125 0 -9.890625 2.59375q-2.2968903 1.671875 -2.2968903 4.453125q0 2.546875 2.1562653 4.359375q2.734375 2.296875 13.3125 4.796875q10.578125 2.5 15.640625 5.171875q5.0625 2.65625 7.921875 7.296875q2.875 4.625 2.875 11.421875q0 6.171875 -3.4375 11.5625q-3.421875 5.375 -9.6875 8.0q-6.265625 2.609375 -15.609375 2.609375q-13.625015 0 -20.92189 -6.28125q-7.28125 -6.296875 -8.703125 -18.34375zm86.70451 23.359375l0 -59.625l-21.296875 0l0 -12.140625l57.03125 0l0 12.140625l-21.25 0l0 59.625l-14.484375 0zm45.13687 0l0 -71.765625l30.5 0q11.5 0 16.71875 1.9375q5.21875 1.921875 8.34375 6.875q3.140625 4.9375 3.140625 11.296875q0 8.078125 -4.75 13.34375q-4.75 5.265625 -14.203125 6.640625q4.703125 2.734375 7.765625 6.015625q3.0625 3.28125 8.25 11.65625l8.765625 14.0l-17.34375 0l-10.46875 -15.625q-5.578125 -8.359375 -7.640625 -10.53125q-2.046875 -2.1875 -4.359375 -3.0q-2.296875 -0.8125 -7.296875 -0.8125l-2.9375 0l0 29.96875l-14.484375 0zm14.484375 -41.421875l10.734375 0q10.421875 0 13.015625 -0.875q2.59375 -0.890625 4.0625 -3.03125q1.46875 -2.15625 1.46875 -5.390625q0 -3.625 -1.9375 -5.84375q-1.921875 -2.234375 -5.453125 -2.828125q-1.765625 -0.234375 -10.578125 -0.234375l-11.3125 0l0 18.203125zm122.59613 41.421875l-15.765625 0l-6.265625 -16.296875l-28.6875 0l-5.921875 16.296875l-15.375 0l27.953125 -71.765625l15.328125 0l28.734375 71.765625zm-26.6875 -28.390625l-9.875 -26.640625l-9.703125 26.640625l19.578125 0zm54.841675 5.03125l14.09375 -1.359375q1.28125 7.09375 5.171875 10.421875q3.890625 3.328125 10.5 3.328125q7.0 0 10.546875 -2.953125q3.546875 -2.96875 3.546875 -6.9375q0 -2.546875 -1.5 -4.328125q-1.484375 -1.78125 -5.203125 -3.109375q-2.546875 -0.875 -11.609375 -3.140625q-11.640625 -2.875 -16.34375 -7.09375q-6.609375 -5.921875 -6.609375 -14.4375q0 -5.484375 3.109375 -10.25q3.109375 -4.78125 8.953125 -7.28125q5.859375 -2.5 14.125 -2.5q13.515625 0 20.34375 5.9375q6.828125 5.921875 7.171875 15.796875l-14.484375 0.640625q-0.9375 -5.53125 -4.0 -7.953125q-3.046875 -2.421875 -9.171875 -2.421875q-6.3125 0 -9.890625 2.59375q-2.296875 1.671875 -2.296875 4.453125q0 2.546875 2.15625 4.359375q2.734375 2.296875 13.3125 4.796875q10.578125 2.5 15.640625 5.171875q5.0625 2.65625 7.921875 7.296875q2.875 4.625 2.875 11.421875q0 6.171875 -3.4375 11.5625q-3.421875 5.375 -9.6875 8.0q-6.265625 2.609375 -15.609375 2.609375q-13.625 0 -20.921875 -6.28125q-7.28125 -6.296875 -8.703125 -18.34375zm70.54828 23.359375l0 -71.765625l53.21875 0l0 12.140625l-38.734375 0l0 15.90625l36.03125 0l0 12.09375l-36.03125 0l0 19.53125l40.09375 0l0 12.09375l-54.578125 0zm67.01703 0l0 -71.765625l14.109375 0l29.375 47.921875l0 -47.921875l13.453125 0l0 71.765625l-14.53125 0l-28.9375 -46.796875l0 46.796875l-13.46875 0zm18.015625 -75.75l-6.265625 0q-0.046875 -1.125 -0.046875 -1.75q0 -5.140625 2.5 -7.90625q2.5 -2.765625 6.421875 -2.765625q1.703125 0 3.171875 0.375q1.46875 0.359375 5.359375 2.09375q3.890625 1.734375 6.09375 1.734375q1.578125 0 2.625 -0.96875q1.046875 -0.984375 1.34375 -3.296875l6.375 0q-0.0625 6.609375 -2.484375 9.453125q-2.421875 2.84375 -6.234375 2.84375q-1.671875 0 -3.28125 -0.34375q-1.125 -0.296875 -5.640625 -2.0q-4.5 -1.71875 -6.546875 -1.71875q-1.578125 0 -2.453125 0.953125q-0.875 0.953125 -0.9375 3.296875zm51.31488 40.296875q0 -10.953125 3.28125 -18.40625q2.4375 -5.484375 6.671875 -9.828125q4.25 -4.359375 9.28125 -6.46875q6.71875 -2.84375 15.46875 -2.84375q15.875 0 25.390625 9.84375q9.515625 9.84375 9.515625 27.375q0 17.375 -9.453125 27.1875q-9.4375 9.8125 -25.25 9.8125q-16.015625 0 -25.46875 -9.765625q-9.4375 -9.765625 -9.4375 -26.90625zm14.9375 -0.484375q0 12.1875 5.625 18.484375q5.625 6.296875 14.296875 6.296875q8.65625 0 14.21875 -6.234375q5.5625 -6.25 5.5625 -18.734375q0 -12.34375 -5.421875 -18.40625q-5.40625 -6.078125 -14.359375 -6.078125q-8.96875 0 -14.453125 6.140625q-5.46875 6.140625 -5.46875 18.53125zm66.03668 35.9375l0 -71.765625l30.5 0q11.5 0 16.71875 1.9375q5.21875 1.921875 8.34375 6.875q3.140625 4.9375 3.140625 11.296875q0 8.078125 -4.75 13.34375q-4.75 5.265625 -14.203125 6.640625q4.703125 2.734375 7.765625 6.015625q3.0625 3.28125 8.25 11.65625l8.765625 14.0l-17.34375 0l-10.46875 -15.625q-5.578125 -8.359375 -7.640625 -10.53125q-2.046875 -2.1875 -4.359375 -3.0q-2.296875 -0.8125 -7.296875 -0.8125l-2.9375 0l0 29.96875l-14.484375 0zm14.484375 -41.421875l10.734375 0q10.421875 0 13.015625 -0.875q2.59375 -0.890625 4.0625 -3.03125q1.46875 -2.15625 1.46875 -5.390625q0 -3.625 -1.9375 -5.84375q-1.921875 -2.234375 -5.453125 -2.828125q-1.765625 -0.234375 -10.578125 -0.234375l-11.3125 0l0 18.203125zm122.59613 41.421875l-15.765625 0l-6.265625 -16.296875l-28.6875 0l-5.921875 16.296875l-15.375 0l27.953125 -71.765625l15.328125 0l28.734375 71.765625zm-26.6875 -28.390625l-9.875 -26.640625l-9.703125 26.640625l19.578125 0zm58.466675 -43.375l26.484375 0q8.953125 0 13.65625 1.359375q6.3125 1.859375 10.8125 6.609375q4.515625 4.75 6.859375 11.640625q2.359375 6.875 2.359375 16.953125q0 8.859375 -2.203125 15.28125q-2.703125 7.828125 -7.6875 12.671875q-3.78125 3.671875 -10.1875 5.734375q-4.796875 1.515625 -12.828125 1.515625l-27.265625 0l0 -71.765625zm14.484375 12.140625l0 47.53125l10.828125 0q6.0625 0 8.765625 -0.6875q3.515625 -0.875 5.84375 -2.984375q2.328125 -2.109375 3.796875 -6.921875q1.46875 -4.828125 1.46875 -13.15625q0 -8.3125 -1.46875 -12.765625q-1.46875 -4.453125 -4.125 -6.953125q-2.640625 -2.5 -6.703125 -3.375q-3.03125 -0.6875 -11.890625 -0.6875l-6.515625 0zm57.97107 59.625l0 -71.765625l53.21875 0l0 12.140625l-38.734375 0l0 15.90625l36.03125 0l0 12.09375l-36.03125 0l0 19.53125l40.09375 0l0 12.09375l-54.578125 0zm95.12402 0l0 -71.1875l14.484375 0l0 59.09375l36.03125 0l0 12.09375l-50.515625 0zm57.91809 -35.453125q0 -10.953125 3.28125 -18.40625q2.4375 -5.484375 6.671875 -9.828125q4.25 -4.359375 9.28125 -6.46875q6.71875 -2.84375 15.46875 -2.84375q15.875 0 25.390625 9.84375q9.515625 9.84375 9.515625 27.375q0 17.375 -9.453125 27.1875q-9.4375 9.8125 -25.25 9.8125q-16.015625 0 -25.46875 -9.765625q-9.4375 -9.765625 -9.4375 -26.90625zm14.9375 -0.484375q0 12.1875 5.625 18.484375q5.625 6.296875 14.296875 6.296875q8.65625 0 14.21875 -6.234375q5.5625 -6.25 5.5625 -18.734375q0 -12.34375 -5.421875 -18.40625q-5.40625 -6.078125 -14.359375 -6.078125q-8.96875 0 -14.453125 6.140625q-5.46875 6.140625 -5.46875 18.53125zm62.317993 12.578125l14.09375 -1.359375q1.28125 7.09375 5.171875 10.421875q3.890625 3.328125 10.5 3.328125q7.0 0 10.546875 -2.953125q3.546875 -2.96875 3.546875 -6.9375q0 -2.546875 -1.5 -4.328125q-1.484375 -1.78125 -5.203125 -3.109375q-2.546875 -0.875 -11.609375 -3.140625q-11.640625 -2.875 -16.34375 -7.09375q-6.609375 -5.921875 -6.609375 -14.4375q0 -5.484375 3.109375 -10.25q3.109375 -4.78125 8.953125 -7.28125q5.859375 -2.5 14.125 -2.5q13.515625 0 20.34375 5.9375q6.828125 5.921875 7.171875 15.796875l-14.484375 0.640625q-0.9375 -5.53125 -4.0 -7.953125q-3.046875 -2.421875 -9.171875 -2.421875q-6.3125 0 -9.890625 2.59375q-2.296875 1.671875 -2.296875 4.453125q0 2.546875 2.15625 4.359375q2.734375 2.296875 13.3125 4.796875q10.578125 2.5 15.640625 5.171875q5.0625 2.65625 7.921875 7.296875q2.875 4.625 2.875 11.421875q0 6.171875 -3.4375 11.5625q-3.421875 5.375 -9.6875 8.0q-6.265625 2.609375 -15.609375 2.609375q-13.625 0 -20.921875 -6.28125q-7.28125 -6.296875 -8.703125 -18.34375zm98.3584 -48.40625l26.484375 0q8.953125 0 13.65625 1.359375q6.3125 1.859375 10.8125 6.609375q4.515625 4.75 6.859375 11.640625q2.359375 6.875 2.359375 16.953125q0 8.859375 -2.203125 15.28125q-2.703125 7.828125 -7.6875 12.671875q-3.78125 3.671875 -10.1875 5.734375q-4.796875 1.515625 -12.828125 1.515625l-27.265625 0l0 -71.765625zm14.484375 12.140625l0 47.53125l10.828125 0q6.0625 0 8.765625 -0.6875q3.515625 -0.875 5.84375 -2.984375q2.328125 -2.109375 3.796875 -6.921875q1.46875 -4.828125 1.46875 -13.15625q0 -8.3125 -1.46875 -12.765625q-1.46875 -4.453125 -4.125 -6.953125q-2.640625 -2.5 -6.703125 -3.375q-3.03125 -0.6875 -11.890625 -0.6875l-6.515625 0zm55.03369 24.171875q0 -10.953125 3.28125 -18.40625q2.4375 -5.484375 6.671875 -9.828125q4.25 -4.359375 9.28125 -6.46875q6.71875 -2.84375 15.46875 -2.84375q15.875 0 25.390625 9.84375q9.515625 9.84375 9.515625 27.375q0 17.375 -9.453125 27.1875q-9.4375 9.8125 -25.25 9.8125q-16.015625 0 -25.46875 -9.765625q-9.4375 -9.765625 -9.4375 -26.90625zm14.9375 -0.484375q0 12.1875 5.625 18.484375q5.625 6.296875 14.296875 6.296875q8.65625 0 14.21875 -6.234375q5.5625 -6.25 5.5625 -18.734375q0 -12.34375 -5.421875 -18.40625q-5.40625 -6.078125 -14.359375 -6.078125q-8.96875 0 -14.453125 6.140625q-5.46875 6.140625 -5.46875 18.53125zm66.38049 35.9375l0 -71.1875l14.484375 0l0 59.09375l36.03125 0l0 12.09375l-50.515625 0zm57.91809 -35.453125q0 -10.953125 3.28125 -18.40625q2.4375 -5.484375 6.671875 -9.828125q4.25 -4.359375 9.28125 -6.46875q6.71875 -2.84375 15.46875 -2.84375q15.875 0 25.390625 9.84375q9.515625 9.84375 9.515625 27.375q0 17.375 -9.453125 27.1875q-9.4375 9.8125 -25.25 9.8125q-16.015625 0 -25.46875 -9.765625q-9.4375 -9.765625 -9.4375 -26.90625zm14.9375 -0.484375q0 12.1875 5.625 18.484375q5.625 6.296875 14.296875 6.296875q8.65625 0 14.21875 -6.234375q5.5625 -6.25 5.5625 -18.734375q0 -12.34375 -5.421875 -18.40625q-5.40625 -6.078125 -14.359375 -6.078125q-8.96875 0 -14.453125 6.140625q-5.46875 6.140625 -5.46875 18.53125zm66.03674 35.9375l0 -71.765625l30.5 0q11.5 0 16.71875 1.9375q5.21875 1.921875 8.34375 6.875q3.140625 4.9375 3.140625 11.296875q0 8.078125 -4.75 13.34375q-4.75 5.265625 -14.203125 6.640625q4.703125 2.734375 7.765625 6.015625q3.0625 3.28125 8.25 11.65625l8.765625 14.0l-17.34375 0l-10.46875 -15.625q-5.578125 -8.359375 -7.640625 -10.53125q-2.046875 -2.1875 -4.359375 -3.0q-2.296875 -0.8125 -7.296875 -0.8125l-2.9375 0l0 29.96875l-14.484375 0zm14.484375 -41.421875l10.734375 0q10.421875 0 13.015625 -0.875q2.59375 -0.890625 4.0625 -3.03125q1.46875 -2.15625 1.46875 -5.390625q0 -3.625 -1.9375 -5.84375q-1.921875 -2.234375 -5.453125 -2.828125q-1.765625 -0.234375 -10.578125 -0.234375l-11.3125 0l0 18.203125zm57.87732 41.421875l0 -71.765625l53.21875 0l0 12.140625l-38.734375 0l0 15.90625l36.03125 0l0 12.09375l-36.03125 0l0 19.53125l40.09375 0l0 12.09375l-54.578125 0zm63.204468 -23.359375l14.09375 -1.359375q1.28125 7.09375 5.171875 10.421875q3.890625 3.328125 10.5 3.328125q7.0 0 10.546875 -2.953125q3.546875 -2.96875 3.546875 -6.9375q0 -2.546875 -1.5 -4.328125q-1.484375 -1.78125 -5.203125 -3.109375q-2.546875 -0.875 -11.609375 -3.140625q-11.640625 -2.875 -16.34375 -7.09375q-6.609375 -5.921875 -6.609375 -14.4375q0 -5.484375 3.109375 -10.25q3.109375 -4.78125 8.953125 -7.28125q5.859375 -2.5 14.125 -2.5q13.515625 0 20.34375 5.9375q6.828125 5.921875 7.171875 15.796875l-14.484375 0.640625q-0.9375 -5.53125 -4.0 -7.953125q-3.046875 -2.421875 -9.171875 -2.421875q-6.3125 0 -9.890625 2.59375q-2.296875 1.671875 -2.296875 4.453125q0 2.546875 2.15625 4.359375q2.734375 2.296875 13.3125 4.796875q10.578125 2.5 15.640625 5.171875q5.0625 2.65625 7.921875 7.296875q2.875 4.625 2.875 11.421875q0 6.171875 -3.4375 11.5625q-3.421875 5.375 -9.6875 8.0q-6.265625 2.609375 -15.609375 2.609375q-13.625 0 -20.921875 -6.28125q-7.28125 -6.296875 -8.703125 -18.34375z" fill-rule="nonzero"/><path fill="#ffffff" d="m659.0591 472.86658l0 -71.765625l49.203125 0l0 12.140625l-34.703125 0l0 16.984375l29.953125 0l0 12.140625l-29.953125 0l0 30.5l-14.5 0zm61.058716 -71.765625l14.484375 0l0 38.859375q0 9.265625 0.546875 12.0q0.921875 4.40625 4.421875 7.078125q3.5 2.671875 9.578125 2.671875q6.15625 0 9.296875 -2.515625q3.140625 -2.53125 3.765625 -6.203125q0.640625 -3.671875 0.640625 -12.1875l0 -39.703125l14.484375 0l0 37.6875q0 12.921875 -1.171875 18.265625q-1.171875 5.328125 -4.328125 9.0q-3.15625 3.671875 -8.453125 5.859375q-5.28125 2.171875 -13.796875 2.171875q-10.28125 0 -15.59375 -2.375q-5.3125 -2.375 -8.40625 -6.15625q-3.078125 -3.796875 -4.0625 -7.96875q-1.40625 -6.15625 -1.40625 -18.203125l0 -38.28125zm72.64307 71.765625l0 -71.765625l14.109375 0l29.375 47.921875l0 -47.921875l13.453125 0l0 71.765625l-14.53125 0l-28.9375 -46.796875l0 46.796875l-13.46875 0zm72.22107 -71.765625l26.484375 0q8.953125 0 13.65625 1.359375q6.3125 1.859375 10.8125 6.609375q4.515625 4.75 6.859375 11.640625q2.359375 6.875 2.359375 16.953125q0 8.859375 -2.203125 15.28125q-2.703125 7.828125 -7.6875 12.671875q-3.78125 3.671875 -10.1875 5.734375q-4.796875 1.515625 -12.828125 1.515625l-27.265625 0l0 -71.765625zm14.484375 12.140625l0 47.53125l10.828125 0q6.0625 0 8.765625 -0.6875q3.515625 -0.875 5.84375 -2.984375q2.328125 -2.109375 3.796875 -6.921875q1.46875 -4.828125 1.46875 -13.15625q0 -8.3125 -1.46875 -12.765625q-1.46875 -4.453125 -4.125 -6.953125q-2.640625 -2.5 -6.703125 -3.375q-3.03125 -0.6875 -11.890625 -0.6875l-6.515625 0zm122.68994 59.625l-15.765625 0l-6.265625 -16.296875l-28.6875 0l-5.921875 16.296875l-15.375 0l27.953125 -71.765625l15.328125 0l28.734375 71.765625zm-26.6875 -28.390625l-9.875 -26.640625l-9.703125 26.640625l19.578125 0zm80.299194 2.0l14.046875 4.453125q-3.234375 11.75 -10.75 17.453125q-7.515625 5.703125 -19.0625 5.703125q-14.296875 0 -23.5 -9.765625q-9.203125 -9.765625 -9.203125 -26.703125q0 -17.921875 9.25 -27.828125q9.25 -9.921875 24.328125 -9.921875q13.171875 0 21.40625 7.78125q4.890625 4.609375 7.34375 13.21875l-14.34375 3.4375q-1.28125 -5.578125 -5.328125 -8.8125q-4.03125 -3.234375 -9.8125 -3.234375q-7.96875 0 -12.9375 5.734375q-4.96875 5.71875 -4.96875 18.546875q0 13.609375 4.890625 19.390625q4.890625 5.78125 12.734375 5.78125q5.765625 0 9.921875 -3.671875q4.171875 -3.671875 5.984375 -11.5625zm26.049316 26.390625l0 -71.765625l14.484375 0l0 71.765625l-14.484375 0zm25.357056 -35.453125q0 -10.953125 3.28125 -18.40625q2.4375 -5.484375 6.671875 -9.828125q4.25 -4.359375 9.28125 -6.46875q6.71875 -2.84375 15.46875 -2.84375q15.875 0 25.390625 9.84375q9.515625 9.84375 9.515625 27.375q0 17.375 -9.453125 27.1875q-9.4375 9.8125 -25.25 9.8125q-16.015625 0 -25.46875 -9.765625q-9.4375 -9.765625 -9.4375 -26.90625zm14.9375 -0.484375q0 12.1875 5.625 18.484375q5.625 6.296875 14.296875 6.296875q8.65625 0 14.21875 -6.234375q5.5625 -6.25 5.5625 -18.734375q0 -12.34375 -5.421875 -18.40625q-5.40625 -6.078125 -14.359375 -6.078125q-8.96875 0 -14.453125 6.140625q-5.46875 6.140625 -5.46875 18.53125zm10.953125 -39.953125l6.75 -14.640625l15.421875 0l-13.453125 14.640625l-8.71875 0zm55.177246 75.890625l0 -71.765625l14.109375 0l29.375 47.921875l0 -47.921875l13.453125 0l0 71.765625l-14.53125 0l-28.9375 -46.796875l0 46.796875l-13.46875 0z" fill-rule="nonzero"/></g></svg>