<svg version="1.1" viewBox="0.0 0.0 960.0 313.3228346456693" fill="none" stroke="none" stroke-linecap="square" stroke-miterlimit="10" xmlns:xlink="http://www.w3.org/1999/xlink" xmlns="http://www.w3.org/2000/svg"><clipPath id="p.0"><path d="m0 0l960.0 0l0 313.32285l-960.0 0l0 -313.32285z" clip-rule="nonzero"/></clipPath><g clip-path="url(#p.0)"><path fill="#000000" fill-opacity="0.0" d="m0 0l960.0 0l0 313.32285l-960.0 0z" fill-rule="evenodd"/><path fill="#000000" fill-opacity="0.0" d="m0 92.85123l960.0 0l0 127.62204l-960.0 0z" fill-rule="evenodd"/><path fill="#ffffff" d="m23.989014 149.46722l0 -35.5l6.96875 0l14.53125 23.703125l0 -23.703125l6.65625 0l0 35.5l-7.1875 0l-14.3125 -23.15625l0 23.15625l-6.65625 0zm35.690018 -35.5l7.171875 0l0 19.234375q0 4.5625 0.265625 5.921875q0.453125 2.1875 2.1875 3.515625q1.734375 1.3125 4.734375 1.3125q3.046875 0 4.59375 -1.25q1.5625 -1.25 1.875 -3.0625q0.3125 -1.8125 0.3125 -6.03125l0 -19.640625l7.171875 0l0 18.640625q0 6.390625 -0.59375 9.03125q-0.578125 2.640625 -2.140625 4.46875q-1.5625 1.8125 -4.1875 2.890625q-2.609375 1.078125 -6.8125 1.078125q-5.09375 0 -7.71875 -1.171875q-2.625 -1.1875 -4.15625 -3.0625q-1.515625 -1.875 -2.0 -3.9375q-0.703125 -3.046875 -0.703125 -9.0l0 -18.9375zm35.861893 35.5l0 -35.5l26.328125 0l0 6.0l-19.15625 0l0 7.875l17.8125 0l0 5.984375l-17.8125 0l0 9.65625l19.828125 0l0 5.984375l-27.0 0zm31.266144 -11.546875l6.96875 -0.6875q0.625 3.515625 2.546875 5.171875q1.9375 1.640625 5.203125 1.640625q3.46875 0 5.21875 -1.46875q1.75 -1.46875 1.75 -3.421875q0 -1.265625 -0.734375 -2.140625q-0.734375 -0.890625 -2.578125 -1.546875q-1.265625 -0.4375 -5.734375 -1.546875q-5.765625 -1.421875 -8.09375 -3.515625q-3.265625 -2.921875 -3.265625 -7.140625q0 -2.703125 1.53125 -5.0625q1.546875 -2.375 4.4375 -3.609375q2.890625 -1.234375 6.984375 -1.234375q6.6875 0 10.0625 2.9375q3.375 2.921875 3.546875 7.8125l-7.171875 0.328125q-0.453125 -2.75 -1.96875 -3.9375q-1.515625 -1.203125 -4.546875 -1.203125q-3.125 0 -4.890625 1.28125q-1.140625 0.828125 -1.140625 2.203125q0 1.265625 1.078125 2.15625q1.34375 1.140625 6.578125 2.375q5.234375 1.234375 7.734375 2.5625q2.515625 1.3125 3.921875 3.609375q1.421875 2.28125 1.421875 5.640625q0 3.0625 -1.703125 5.71875q-1.6875 2.65625 -4.796875 3.953125q-3.09375 1.296875 -7.71875 1.296875q-6.734375 0 -10.34375 -3.109375q-3.59375 -3.109375 -4.296875 -9.0625zm42.87552 11.546875l0 -29.5l-10.53125 0l0 -6.0l28.21875 0l0 6.0l-10.515625 0l0 29.5l-7.171875 0zm22.325089 0l0 -35.5l15.09375 0q5.6875 0 8.265625 0.953125q2.578125 0.953125 4.125 3.40625q1.5625 2.4375 1.5625 5.59375q0 4.0 -2.359375 6.609375q-2.34375 2.59375 -7.015625 3.265625q2.328125 1.359375 3.828125 2.984375q1.515625 1.625 4.09375 5.765625l4.328125 6.921875l-8.578125 0l-5.171875 -7.71875q-2.765625 -4.140625 -3.78125 -5.21875q-1.015625 -1.078125 -2.15625 -1.46875q-1.140625 -0.40625 -3.609375 -0.40625l-1.453125 0l0 14.8125l-7.171875 0zm7.171875 -20.484375l5.3125 0q5.15625 0 6.4375 -0.4375q1.28125 -0.4375 2.0 -1.5q0.734375 -1.0625 0.734375 -2.671875q0 -1.78125 -0.953125 -2.875q-0.953125 -1.109375 -2.703125 -1.40625q-0.875 -0.125 -5.234375 -0.125l-5.59375 0l0 9.015625zm60.643143 20.484375l-7.796875 0l-3.109375 -8.0625l-14.1875 0l-2.921875 8.0625l-7.609375 0l13.828125 -35.5l7.578125 0l14.21875 35.5zm-13.203125 -14.046875l-4.890625 -13.171875l-4.796875 13.171875l9.6875 0zm27.128113 2.5l6.96875 -0.6875q0.625 3.515625 2.546875 5.171875q1.9375 1.640625 5.203125 1.640625q3.46875 0 5.21875 -1.46875q1.75 -1.46875 1.75 -3.421875q0 -1.265625 -0.734375 -2.140625q-0.734375 -0.890625 -2.578125 -1.546875q-1.265625 -0.4375 -5.734375 -1.546875q-5.765625 -1.421875 -8.09375 -3.515625q-3.265625 -2.921875 -3.265625 -7.140625q0 -2.703125 1.53125 -5.0625q1.546875 -2.375 4.4375 -3.609375q2.890625 -1.234375 6.984375 -1.234375q6.6875 0 10.0625 2.9375q3.375 2.921875 3.546875 7.8125l-7.171875 0.328125q-0.453125 -2.75 -1.96875 -3.9375q-1.515625 -1.203125 -4.546875 -1.203125q-3.125 0 -4.890625 1.28125q-1.140625 0.828125 -1.140625 2.203125q0 1.265625 1.078125 2.15625q1.34375 1.140625 6.578125 2.375q5.234375 1.234375 7.734375 2.5625q2.515625 1.3125 3.921875 3.609375q1.421875 2.28125 1.421875 5.640625q0 3.0625 -1.703125 5.71875q-1.6875 2.65625 -4.796875 3.953125q-3.09375 1.296875 -7.71875 1.296875q-6.734375 0 -10.34375 -3.109375q-3.59375 -3.109375 -4.296875 -9.0625zm34.891174 11.546875l0 -35.5l26.328125 0l0 6.0l-19.15625 0l0 7.875l17.8125 0l0 5.984375l-17.8125 0l0 9.65625l19.828125 0l0 5.984375l-27.0 0zm33.15677 0l0 -35.5l6.96875 0l14.53125 23.703125l0 -23.703125l6.65625 0l0 35.5l-7.1875 0l-14.3125 -23.15625l0 23.15625l-6.65625 0zm8.90625 -37.46875l-3.109375 0q-0.015625 -0.546875 -0.015625 -0.859375q0 -2.546875 1.234375 -3.90625q1.234375 -1.375 3.171875 -1.375q0.84375 0 1.5625 0.1875q0.734375 0.171875 2.65625 1.03125q1.9375 0.859375 3.015625 0.859375q0.78125 0 1.296875 -0.484375q0.53125 -0.484375 0.671875 -1.625l3.140625 0q-0.015625 3.28125 -1.21875 4.6875q-1.203125 1.390625 -3.09375 1.390625q-0.8125 0 -1.609375 -0.171875q-0.5625 -0.140625 -2.796875 -0.984375q-2.21875 -0.84375 -3.234375 -0.84375q-0.78125 0 -1.21875 0.46875q-0.4375 0.46875 -0.453125 1.625zm25.377533 19.9375q0 -5.421875 1.625 -9.109375q1.203125 -2.703125 3.296875 -4.859375q2.09375 -2.15625 4.59375 -3.203125q3.3125 -1.40625 7.65625 -1.40625q7.84375 0 12.546875 4.875q4.71875 4.859375 4.71875 13.53125q0 8.59375 -4.671875 13.453125q-4.671875 4.859375 -12.5 4.859375q-7.921875 0 -12.59375 -4.828125q-4.671875 -4.84375 -4.671875 -13.3125zm7.390625 -0.25q0 6.03125 2.78125 9.15625q2.78125 3.109375 7.0625 3.109375q4.296875 0 7.046875 -3.09375q2.75 -3.09375 2.75 -9.265625q0 -6.09375 -2.6875 -9.09375q-2.671875 -3.015625 -7.109375 -3.015625q-4.421875 0 -7.140625 3.046875q-2.703125 3.03125 -2.703125 9.15625zm32.653748 17.78125l0 -35.5l15.09375 0q5.6875 0 8.265625 0.953125q2.578125 0.953125 4.125 3.40625q1.5625 2.4375 1.5625 5.59375q0 4.0 -2.359375 6.609375q-2.34375 2.59375 -7.015625 3.265625q2.328125 1.359375 3.828125 2.984375q1.515625 1.625 4.09375 5.765625l4.328125 6.921875l-8.578125 0l-5.171875 -7.71875q-2.765625 -4.140625 -3.78125 -5.21875q-1.015625 -1.078125 -2.15625 -1.46875q-1.140625 -0.40625 -3.609375 -0.40625l-1.453125 0l0 14.8125l-7.171875 0zm7.171875 -20.484375l5.3125 0q5.15625 0 6.4375 -0.4375q1.28125 -0.4375 2.0 -1.5q0.734375 -1.0625 0.734375 -2.671875q0 -1.78125 -0.953125 -2.875q-0.953125 -1.109375 -2.703125 -1.40625q-0.875 -0.125 -5.234375 -0.125l-5.59375 0l0 9.015625zm60.643127 20.484375l-7.796875 0l-3.109375 -8.0625l-14.1875 0l-2.921875 8.0625l-7.609375 0l13.828125 -35.5l7.578125 0l14.21875 35.5zm-13.203125 -14.046875l-4.890625 -13.171875l-4.796875 13.171875l9.6875 0zm28.909363 -21.453125l13.109375 0q4.421875 0 6.75 0.671875q3.125 0.921875 5.34375 3.28125q2.234375 2.34375 3.390625 5.75q1.171875 3.390625 1.171875 8.390625q0 4.375 -1.09375 7.546875q-1.328125 3.875 -3.796875 6.28125q-1.859375 1.8125 -5.03125 2.828125q-2.375 0.75 -6.34375 0.75l-13.5 0l0 -35.5zm7.171875 6.0l0 23.515625l5.359375 0q3.0 0 4.328125 -0.328125q1.75 -0.4375 2.890625 -1.484375q1.15625 -1.046875 1.875 -3.421875q0.734375 -2.390625 0.734375 -6.5q0 -4.125 -0.734375 -6.328125q-0.71875 -2.203125 -2.03125 -3.4375q-1.3125 -1.234375 -3.3125 -1.671875q-1.5 -0.34375 -5.890625 -0.34375l-3.21875 0zm28.674377 29.5l0 -35.5l26.328125 0l0 6.0l-19.15625 0l0 7.875l17.8125 0l0 5.984375l-17.8125 0l0 9.65625l19.828125 0l0 5.984375l-27.0 0zm47.04492 0l0 -35.203125l7.171875 0l0 29.21875l17.828125 0l0 5.984375l-25.0 0zm28.653198 -17.53125q0 -5.421875 1.625 -9.109375q1.203125 -2.703125 3.296875 -4.859375q2.09375 -2.15625 4.59375 -3.203125q3.3125 -1.40625 7.65625 -1.40625q7.84375 0 12.546875 4.875q4.71875 4.859375 4.71875 13.53125q0 8.59375 -4.671875 13.453125q-4.671875 4.859375 -12.5 4.859375q-7.921875 0 -12.59375 -4.828125q-4.671875 -4.84375 -4.671875 -13.3125zm7.390625 -0.25q0 6.03125 2.78125 9.15625q2.78125 3.109375 7.0625 3.109375q4.296875 0 7.046875 -3.09375q2.75 -3.09375 2.75 -9.265625q0 -6.09375 -2.6875 -9.09375q-2.671875 -3.015625 -7.109375 -3.015625q-4.421875 0 -7.140625 3.046875q-2.703125 3.03125 -2.703125 9.15625zm30.825623 6.234375l6.96875 -0.6875q0.625 3.515625 2.546875 5.171875q1.9375 1.640625 5.203125 1.640625q3.46875 0 5.21875 -1.46875q1.75 -1.46875 1.75 -3.421875q0 -1.265625 -0.734375 -2.140625q-0.734375 -0.890625 -2.578125 -1.546875q-1.265625 -0.4375 -5.734375 -1.546875q-5.765625 -1.421875 -8.09375 -3.515625q-3.265625 -2.921875 -3.265625 -7.140625q0 -2.703125 1.53125 -5.0625q1.546875 -2.375 4.4375 -3.609375q2.890625 -1.234375 6.984375 -1.234375q6.6875 0 10.0625 2.9375q3.375 2.921875 3.546875 7.8125l-7.171875 0.328125q-0.453125 -2.75 -1.96875 -3.9375q-1.515625 -1.203125 -4.546875 -1.203125q-3.125 0 -4.890625 1.28125q-1.140625 0.828125 -1.140625 2.203125q0 1.265625 1.078125 2.15625q1.34375 1.140625 6.578125 2.375q5.234375 1.234375 7.734375 2.5625q2.515625 1.3125 3.921875 3.609375q1.421875 2.28125 1.421875 5.640625q0 3.0625 -1.703125 5.71875q-1.6875 2.65625 -4.796875 3.953125q-3.09375 1.296875 -7.71875 1.296875q-6.734375 0 -10.34375 -3.109375q-3.59375 -3.109375 -4.296875 -9.0625zm48.63861 -23.953125l13.109375 0q4.421875 0 6.75 0.671875q3.125 0.921875 5.34375 3.28125q2.234375 2.34375 3.390625 5.75q1.171875 3.390625 1.171875 8.390625q0 4.375 -1.09375 7.546875q-1.328125 3.875 -3.796875 6.28125q-1.859375 1.8125 -5.03125 2.828125q-2.375 0.75 -6.34375 0.75l-13.5 0l0 -35.5zm7.171875 6.0l0 23.515625l5.359375 0q3.0 0 4.328125 -0.328125q1.75 -0.4375 2.890625 -1.484375q1.15625 -1.046875 1.875 -3.421875q0.734375 -2.390625 0.734375 -6.5q0 -4.125 -0.734375 -6.328125q-0.71875 -2.203125 -2.03125 -3.4375q-1.3125 -1.234375 -3.3125 -1.671875q-1.5 -0.34375 -5.890625 -0.34375l-3.21875 0zm27.221252 11.96875q0 -5.421875 1.625 -9.109375q1.203125 -2.703125 3.296875 -4.859375q2.09375 -2.15625 4.59375 -3.203125q3.3125 -1.40625 7.65625 -1.40625q7.84375 0 12.546875 4.875q4.71875 4.859375 4.71875 13.53125q0 8.59375 -4.671875 13.453125q-4.671875 4.859375 -12.5 4.859375q-7.921875 0 -12.59375 -4.828125q-4.671875 -4.84375 -4.671875 -13.3125zm7.390625 -0.25q0 6.03125 2.78125 9.15625q2.78125 3.109375 7.0625 3.109375q4.296875 0 7.046875 -3.09375q2.75 -3.09375 2.75 -9.265625q0 -6.09375 -2.6875 -9.09375q-2.671875 -3.015625 -7.109375 -3.015625q-4.421875 0 -7.140625 3.046875q-2.703125 3.03125 -2.703125 9.15625zm32.825623 17.78125l0 -35.203125l7.171875 0l0 29.21875l17.828125 0l0 5.984375l-25.0 0zm28.653198 -17.53125q0 -5.421875 1.625 -9.109375q1.203125 -2.703125 3.296875 -4.859375q2.09375 -2.15625 4.59375 -3.203125q3.3125 -1.40625 7.65625 -1.40625q7.84375 0 12.546875 4.875q4.71875 4.859375 4.71875 13.53125q0 8.59375 -4.671875 13.453125q-4.671875 4.859375 -12.5 4.859375q-7.921875 0 -12.59375 -4.828125q-4.671875 -4.84375 -4.671875 -13.3125zm7.390625 -0.25q0 6.03125 2.78125 9.15625q2.78125 3.109375 7.0625 3.109375q4.296875 0 7.046875 -3.09375q2.75 -3.09375 2.75 -9.265625q0 -6.09375 -2.6875 -9.09375q-2.671875 -3.015625 -7.109375 -3.015625q-4.421875 0 -7.140625 3.046875q-2.703125 3.03125 -2.703125 9.15625zm32.653748 17.78125l0 -35.5l15.09375 0q5.6875 0 8.265625 0.953125q2.578125 0.953125 4.125 3.40625q1.5625 2.4375 1.5625 5.59375q0 4.0 -2.359375 6.609375q-2.34375 2.59375 -7.015625 3.265625q2.328125 1.359375 3.828125 2.984375q1.515625 1.625 4.09375 5.765625l4.328125 6.921875l-8.578125 0l-5.171875 -7.71875q-2.765625 -4.140625 -3.78125 -5.21875q-1.015625 -1.078125 -2.15625 -1.46875q-1.140625 -0.40625 -3.609375 -0.40625l-1.453125 0l0 14.8125l-7.171875 0zm7.171875 -20.484375l5.3125 0q5.15625 0 6.4375 -0.4375q1.28125 -0.4375 2.0 -1.5q0.734375 -1.0625 0.734375 -2.671875q0 -1.78125 -0.953125 -2.875q-0.953125 -1.109375 -2.703125 -1.40625q-0.875 -0.125 -5.234375 -0.125l-5.59375 0l0 9.015625zm28.627502 20.484375l0 -35.5l26.328125 0l0 6.0l-19.15625 0l0 7.875l17.8125 0l0 5.984375l-17.8125 0l0 9.65625l19.828125 0l0 5.984375l-27.0 0zm31.266174 -11.546875l6.96875 -0.6875q0.625 3.515625 2.546875 5.171875q1.9375 1.640625 5.203125 1.640625q3.46875 0 5.21875 -1.46875q1.75 -1.46875 1.75 -3.421875q0 -1.265625 -0.734375 -2.140625q-0.734375 -0.890625 -2.578125 -1.546875q-1.265625 -0.4375 -5.734375 -1.546875q-5.765625 -1.421875 -8.09375 -3.515625q-3.265625 -2.921875 -3.265625 -7.140625q0 -2.703125 1.53125 -5.0625q1.546875 -2.375 4.4375 -3.609375q2.890625 -1.234375 6.984375 -1.234375q6.6875 0 10.0625 2.9375q3.375 2.921875 3.546875 7.8125l-7.171875 0.328125q-0.453125 -2.75 -1.96875 -3.9375q-1.515625 -1.203125 -4.546875 -1.203125q-3.125 0 -4.890625 1.28125q-1.140625 0.828125 -1.140625 2.203125q0 1.265625 1.078125 2.15625q1.34375 1.140625 6.578125 2.375q5.234375 1.234375 7.734375 2.5625q2.515625 1.3125 3.921875 3.609375q1.421875 2.28125 1.421875 5.640625q0 3.0625 -1.703125 5.71875q-1.6875 2.65625 -4.796875 3.953125q-3.09375 1.296875 -7.71875 1.296875q-6.734375 0 -10.34375 -3.109375q-3.59375 -3.109375 -4.296875 -9.0625z" fill-rule="nonzero"/><path fill="#ffffff" d="m334.88712 208.98723l0 -35.5l24.34375 0l0 6.0l-17.171875 0l0 8.40625l14.8125 0l0 6.0l-14.8125 0l0 15.09375l-7.171875 0zm30.200104 -35.5l7.171875 0l0 19.234375q0 4.5625 0.265625 5.921875q0.453125 2.1875 2.1875 3.515625q1.734375 1.3125 4.734375 1.3125q3.046875 0 4.59375 -1.25q1.5625 -1.25 1.875 -3.0625q0.3125 -1.8125 0.3125 -6.03125l0 -19.640625l7.171875 0l0 18.640625q0 6.390625 -0.59375 9.03125q-0.578125 2.640625 -2.140625 4.46875q-1.5625 1.8125 -4.1875 2.890625q-2.609375 1.078125 -6.8125 1.078125q-5.09375 0 -7.71875 -1.171875q-2.625 -1.1875 -4.15625 -3.0625q-1.515625 -1.875 -2.0 -3.9375q-0.703125 -3.046875 -0.703125 -9.0l0 -18.9375zm35.940002 35.5l0 -35.5l6.96875 0l14.53125 23.703125l0 -23.703125l6.65625 0l0 35.5l-7.1875 0l-14.3125 -23.15625l0 23.15625l-6.65625 0zm35.705627 -35.5l13.109375 0q4.421875 0 6.75 0.671875q3.125 0.921875 5.34375 3.28125q2.234375 2.34375 3.390625 5.75q1.171875 3.390625 1.171875 8.390625q0 4.375 -1.09375 7.546875q-1.328125 3.875 -3.796875 6.28125q-1.859375 1.8125 -5.03125 2.828125q-2.375 0.75 -6.34375 0.75l-13.5 0l0 -35.5zm7.171875 6.0l0 23.515625l5.359375 0q3.0 0 4.328125 -0.328125q1.75 -0.4375 2.890625 -1.484375q1.15625 -1.046875 1.875 -3.421875q0.734375 -2.390625 0.734375 -6.5q0 -4.125 -0.734375 -6.328125q-0.71875 -2.203125 -2.03125 -3.4375q-1.3125 -1.234375 -3.3125 -1.671875q-1.5 -0.34375 -5.890625 -0.34375l-3.21875 0zm60.690033 29.5l-7.796875 0l-3.109375 -8.0625l-14.1875 0l-2.921875 8.0625l-7.609375 0l13.828125 -35.5l7.578125 0l14.21875 35.5zm-13.203125 -14.046875l-4.890625 -13.171875l-4.796875 13.171875l9.6875 0zm39.721283 1.0l6.9375 2.203125q-1.59375 5.8125 -5.3125 8.640625q-3.71875 2.8125 -9.421875 2.8125q-7.078125 0 -11.640625 -4.828125q-4.546875 -4.84375 -4.546875 -13.21875q0 -8.859375 4.578125 -13.765625q4.578125 -4.90625 12.03125 -4.90625q6.515625 0 10.59375 3.859375q2.421875 2.265625 3.625 6.53125l-7.09375 1.703125q-0.625 -2.765625 -2.625 -4.359375q-2.0 -1.609375 -4.859375 -1.609375q-3.9375 0 -6.40625 2.84375q-2.453125 2.828125 -2.453125 9.171875q0 6.734375 2.421875 9.59375q2.421875 2.859375 6.296875 2.859375q2.859375 0 4.90625 -1.8125q2.0625 -1.828125 2.96875 -5.71875zm12.877502 13.046875l0 -35.5l7.171875 0l0 35.5l-7.171875 0zm12.544373 -17.53125q0 -5.421875 1.625 -9.109375q1.203125 -2.703125 3.296875 -4.859375q2.09375 -2.15625 4.59375 -3.203125q3.3125 -1.40625 7.65625 -1.40625q7.84375 0 12.546875 4.875q4.71875 4.859375 4.71875 13.53125q0 8.59375 -4.671875 13.453125q-4.671875 4.859375 -12.5 4.859375q-7.921875 0 -12.59375 -4.828125q-4.671875 -4.84375 -4.671875 -13.3125zm7.390625 -0.25q0 6.03125 2.78125 9.15625q2.78125 3.109375 7.0625 3.109375q4.296875 0 7.046875 -3.09375q2.75 -3.09375 2.75 -9.265625q0 -6.09375 -2.6875 -9.09375q-2.671875 -3.015625 -7.109375 -3.015625q-4.421875 0 -7.140625 3.046875q-2.703125 3.03125 -2.703125 9.15625zm5.421875 -19.75l3.34375 -7.25l7.625 0l-6.65625 7.25l-4.3125 0zm27.294312 37.53125l0 -35.5l6.96875 0l14.53125 23.703125l0 -23.703125l6.65625 0l0 35.5l-7.1875 0l-14.3125 -23.15625l0 23.15625l-6.65625 0z" fill-rule="nonzero"/></g></svg>